<mxfile host="app.diagrams.net" modified="2023-02-06T23:10:00.113Z" agent="5.0 (X11; Linux x86_64) AppleWebKit/537.36 (KHTML, like Gecko) Chrome/109.0.0.0 Safari/537.36" etag="-JQNsFaYSh_nH6YuqnTY" version="20.8.17" type="github">
  <diagram name="Page-1" id="dFcdRdu-HdmZyuKBxG1w">
    <mxGraphModel dx="2074" dy="1036" grid="1" gridSize="10" guides="1" tooltips="1" connect="1" arrows="1" fold="1" page="1" pageScale="1" pageWidth="827" pageHeight="1169" math="0" shadow="0">
      <root>
        <mxCell id="0" />
        <mxCell id="1" parent="0" />
        <mxCell id="6nivyLQt5suRcUuHQVFe-2" value="&lt;pre style=&quot;box-sizing: border-box; overflow: auto; font-family: Menlo, Monaco, Consolas, &amp;quot;Courier New&amp;quot;, monospace; font-size: 13.6px; padding: 16px; margin-top: 0px; margin-bottom: 16px; line-height: 1.45; color: rgb(51, 51, 51); word-break: break-all; overflow-wrap: normal; background-color: rgb(247, 247, 247); border-radius: 3px; letter-spacing: 0.35px; text-align: left; border: inherit !important;&quot;&gt;&lt;code style=&quot;box-sizing: border-box; font-family: Menlo, Monaco, Consolas, &amp;quot;Courier New&amp;quot;, monospace; padding: 0px; background: transparent; border-radius: 3px; margin: 0px; word-break: normal; border: 0px; display: inline; overflow: visible; line-height: inherit; overflow-wrap: normal; color: inherit !important;&quot;&gt;struct A {    &lt;br&gt;     void *b;&lt;br&gt;     int c;&lt;br&gt;     char *d;&lt;br&gt;     int e;&lt;br&gt;}&lt;/code&gt;&lt;/pre&gt;" style="rounded=0;whiteSpace=wrap;html=1;" parent="1" vertex="1">
          <mxGeometry x="110" y="60" width="160" height="170" as="geometry" />
        </mxCell>
        <mxCell id="6nivyLQt5suRcUuHQVFe-3" value="&lt;pre style=&quot;box-sizing: border-box; overflow: auto; font-family: Menlo, Monaco, Consolas, &amp;quot;Courier New&amp;quot;, monospace; font-size: 13.6px; padding: 16px; margin-top: 0px; margin-bottom: 16px; line-height: 1.45; color: rgb(51, 51, 51); word-break: break-all; overflow-wrap: normal; background-color: rgb(247, 247, 247); border-radius: 3px; letter-spacing: 0.35px; text-align: left; border: inherit !important;&quot;&gt;&lt;code style=&quot;box-sizing: border-box; font-family: Menlo, Monaco, Consolas, &amp;quot;Courier New&amp;quot;, monospace; padding: 0px; background: transparent; border-radius: 3px; margin: 0px; word-break: normal; border: 0px; display: inline; overflow: visible; line-height: inherit; overflow-wrap: normal; color: inherit !important;&quot;&gt;struct A_safe {&lt;br&gt;    void *b;&lt;br&gt;    char *d;&lt;br&gt;}&lt;/code&gt;&lt;/pre&gt;" style="rounded=0;whiteSpace=wrap;html=1;" parent="1" vertex="1">
          <mxGeometry x="370" y="300" width="180" height="140" as="geometry" />
        </mxCell>
        <mxCell id="6nivyLQt5suRcUuHQVFe-6" value="&lt;pre style=&quot;box-sizing: border-box; overflow: auto; font-family: Menlo, Monaco, Consolas, &amp;quot;Courier New&amp;quot;, monospace; font-size: 13.6px; padding: 16px; margin-top: 0px; margin-bottom: 16px; line-height: 1.45; color: rgb(51, 51, 51); word-break: break-all; overflow-wrap: normal; background-color: rgb(247, 247, 247); border-radius: 3px; letter-spacing: 0.35px; text-align: left; border: inherit !important;&quot;&gt;&lt;code style=&quot;box-sizing: border-box; font-family: Menlo, Monaco, Consolas, &amp;quot;Courier New&amp;quot;, monospace; padding: 0px; background: transparent; border-radius: 3px; margin: 0px; word-break: normal; border: 0px; display: inline; overflow: visible; line-height: inherit; overflow-wrap: normal; color: inherit !important;&quot;&gt;struct A_unsafe {&lt;br&gt;     struct A_safe *a_safe;&lt;br&gt;     int c;&lt;br&gt;     int e;&lt;br&gt;} &lt;/code&gt;&lt;/pre&gt;" style="rounded=0;whiteSpace=wrap;html=1;" parent="1" vertex="1">
          <mxGeometry x="57.5" y="270" width="265" height="170" as="geometry" />
        </mxCell>
        <mxCell id="6nivyLQt5suRcUuHQVFe-11" value="" style="shape=flexArrow;endArrow=classic;html=1;rounded=0;exitX=0.5;exitY=1;exitDx=0;exitDy=0;entryX=0.5;entryY=0;entryDx=0;entryDy=0;" parent="1" source="6nivyLQt5suRcUuHQVFe-2" target="6nivyLQt5suRcUuHQVFe-6" edge="1">
          <mxGeometry width="50" height="50" relative="1" as="geometry">
            <mxPoint x="390" y="310" as="sourcePoint" />
            <mxPoint x="320" y="210" as="targetPoint" />
          </mxGeometry>
        </mxCell>
        <mxCell id="6nivyLQt5suRcUuHQVFe-10" value="" style="endArrow=classic;html=1;rounded=0;" parent="1" edge="1">
          <mxGeometry width="50" height="50" relative="1" as="geometry">
            <mxPoint x="310" y="330" as="sourcePoint" />
            <mxPoint x="390" y="330" as="targetPoint" />
            <Array as="points" />
          </mxGeometry>
        </mxCell>
        <mxCell id="388w7QYJ6l-8Q-ri44A9-4" value="" style="shape=callout;whiteSpace=wrap;html=1;perimeter=calloutPerimeter;fillStyle=auto;fontFamily=Helvetica;fontSize=18;position2=0;fillColor=#f8cecc;strokeColor=#b85450;size=30;position=0.3;" parent="1" vertex="1">
          <mxGeometry x="240" y="240" width="80" height="80" as="geometry" />
        </mxCell>
        <mxCell id="388w7QYJ6l-8Q-ri44A9-5" value="&lt;p style=&quot;line-height: 60%;&quot;&gt;&lt;font style=&quot;font-size: 12px;&quot;&gt;Pointer&lt;br&gt;Authentation&lt;/font&gt;&lt;/p&gt;" style="text;strokeColor=none;fillColor=none;align=left;verticalAlign=middle;spacingLeft=4;spacingRight=4;overflow=hidden;points=[[0,0.5],[1,0.5]];portConstraint=eastwest;rotatable=0;whiteSpace=wrap;html=1;fontSize=18;fontFamily=Helvetica;" parent="1" vertex="1">
          <mxGeometry x="239" y="230" width="83.5" height="50" as="geometry" />
        </mxCell>
        <mxCell id="388w7QYJ6l-8Q-ri44A9-7" value="&lt;pre style=&quot;box-sizing: border-box; overflow: auto; font-family: Menlo, Monaco, Consolas, &amp;quot;Courier New&amp;quot;, monospace; font-size: 13.6px; padding: 16px; margin-top: 0px; margin-bottom: 16px; line-height: 125%; color: rgb(51, 51, 51); word-break: break-all; overflow-wrap: normal; background-color: rgb(247, 247, 247); border-radius: 3px; letter-spacing: 0.35px; border: inherit !important;&quot;&gt;&lt;code style=&quot;box-sizing: border-box; font-family: Menlo, Monaco, Consolas, &amp;quot;Courier New&amp;quot;, monospace; padding: 0px; background: transparent; border-radius: 3px; margin: 0px; word-break: normal; border: 0px; display: inline; overflow: visible; line-height: inherit; overflow-wrap: normal; color: inherit !important;&quot;&gt;struct A *a;&lt;br&gt;...&lt;br&gt;do_smth(a-&amp;gt;b);&lt;br&gt;&lt;/code&gt;&lt;/pre&gt;" style="text;strokeColor=none;fillColor=none;align=left;verticalAlign=middle;spacingLeft=4;spacingRight=4;overflow=hidden;points=[[0,0.5],[1,0.5]];portConstraint=eastwest;rotatable=0;whiteSpace=wrap;html=1;fontSize=27;fontFamily=Helvetica;" parent="1" vertex="1">
          <mxGeometry x="350" y="60" width="160" height="80" as="geometry" />
        </mxCell>
        <mxCell id="388w7QYJ6l-8Q-ri44A9-8" value="&lt;pre style=&quot;box-sizing: border-box; overflow: auto; font-family: Menlo, Monaco, Consolas, &amp;quot;Courier New&amp;quot;, monospace; font-size: 13.6px; padding: 16px; margin-top: 0px; margin-bottom: 16px; line-height: 125%; color: rgb(51, 51, 51); word-break: break-all; overflow-wrap: normal; background-color: rgb(247, 247, 247); border-radius: 3px; letter-spacing: 0.35px; border: inherit !important;&quot;&gt;&lt;code style=&quot;border: 0px; box-sizing: border-box; font-family: Menlo, Monaco, Consolas, &amp;quot;Courier New&amp;quot;, monospace; padding: 0px; background: transparent; border-radius: 3px; margin: 0px; word-break: normal; display: inline; overflow: visible; line-height: inherit; overflow-wrap: normal; color: inherit !important;&quot;&gt;struct A_unsafe *a_unsafe;&lt;br style=&quot;border-color: var(--border-color);&quot;&gt;...&lt;br style=&quot;border-color: var(--border-color);&quot;&gt;if pa_authenticate(a_unsafe-&amp;gt;a_safe)&lt;br style=&quot;border-color: var(--border-color);&quot;&gt;    do_smth(a_unsafe-&amp;gt;a_safe-&amp;gt;b);&lt;br style=&quot;border-color: var(--border-color);&quot;&gt;else &lt;br style=&quot;border-color: var(--border-color);&quot;&gt;    fail();&lt;/code&gt;&lt;/pre&gt;" style="text;strokeColor=none;fillColor=none;align=left;verticalAlign=middle;spacingLeft=4;spacingRight=4;overflow=hidden;points=[[0,0.5],[1,0.5]];portConstraint=eastwest;rotatable=0;whiteSpace=wrap;html=1;fontSize=27;fontFamily=Helvetica;" parent="1" vertex="1">
          <mxGeometry x="350" y="130" width="360" height="180" as="geometry" />
        </mxCell>
        <mxCell id="388w7QYJ6l-8Q-ri44A9-10" value="" style="html=1;shadow=0;dashed=0;align=center;verticalAlign=middle;shape=mxgraph.arrows2.arrow;dy=0.62;dx=19.18;direction=south;notch=0;fillStyle=auto;fontFamily=Helvetica;fontSize=27;" parent="1" vertex="1">
          <mxGeometry x="414" y="130" width="40" height="30" as="geometry" />
        </mxCell>
      </root>
    </mxGraphModel>
  </diagram>
</mxfile>
